# xmcd
#
# Track frame offsets: 
#        150
#        22390
#        42858
#        59680
#        78825
#        100788
#        117847
#        136333
#        152558
#        173650
#
# Disc length: 2591 seconds
#
# Revision: 1
# Processed by: cddbd v1.5.2PL0 Copyright (c) Steve Scherf et al.
# Submitted via: ExactAudioCopyFreeDBPlugin 1.0
#
DISCID=7c0a1d0a
DTITLE=My Baby - SHAMANAID
DYEAR=2015
DGENRE=Blues
TTITLE0=Seeing Red
TTITLE1=Meet me at the wishing Wall
TTITLE2=Uprising
TTITLE3=The Doors of your Mind
TTITLE4=Mary Morgan
TTITLE5=Remedy
TTITLE6=Hidden from Time
TTITLE7=6X2
TTITLE8=Marching
TTITLE9=Panggajo
EXTD=
EXTT0=
EXTT1=
EXTT2=
EXTT3=
EXTT4=
EXTT5=
EXTT6=
EXTT7=
EXTT8=
EXTT9=
PLAYORDER=
